<svg width="151" height="146" viewBox="0 0 151 146" fill="none" xmlns="http://www.w3.org/2000/svg">
<path d="M48.4437 8.07628C63.9134 -2.26033 84.0866 -2.26033 99.5563 8.07628L126.759 26.2525C154.017 44.4659 154.017 84.5341 126.759 102.748L99.5563 120.924C84.0866 131.26 63.9134 131.26 48.4437 120.924L21.2412 102.748C-6.01704 84.5341 -6.01702 44.4659 21.2412 26.2525L48.4437 8.07628Z" fill="#CCD5AE" fill-opacity="0.51"/>
<path d="M50.2465 22.1275C66.2477 10.6874 87.7523 10.6874 103.753 22.1275L131.661 42.0801C157.323 60.4272 157.323 98.5728 131.661 116.92L103.754 136.873C87.7523 148.313 66.2477 148.313 50.2465 136.873L22.339 116.92C-3.32302 98.5728 -3.32303 60.4272 22.339 42.0801L50.2465 22.1275Z" fill="#CCD5AE"/>
</svg>
